<svg width="250" height="250" viewBox="0 0 250 250" fill="none" xmlns="http://www.w3.org/2000/svg">
<circle cx="125" cy="125" r="125" fill="#29C6BC"/>
<circle cx="125" cy="125" r="110" fill="#171671"/>
<path d="M43 126.502L38.0749 120.846C36.3796 122.322 35.4358 124.481 35.5034 126.728C35.571 128.975 36.6429 131.073 38.424 132.445L43 126.502ZM126 83.0023L125.919 75.5028L126 83.0023ZM207 126.502L211.777 132.284C213.439 130.911 214.43 128.889 214.496 126.735C214.563 124.58 213.7 122.501 212.126 121.028L207 126.502ZM126 166.002L125.929 173.502L126 166.002ZM43 126.502C47.9251 132.159 47.9243 132.159 47.9238 132.16C47.9239 132.16 47.9235 132.16 47.9237 132.16C47.9239 132.16 47.925 132.159 47.9268 132.157C47.9303 132.154 47.9368 132.148 47.9463 132.14C47.9652 132.124 47.996 132.097 48.0382 132.061C48.1227 131.988 48.2532 131.876 48.4279 131.727C48.7772 131.43 49.3026 130.986 49.9881 130.416C51.3596 129.276 53.3695 127.635 55.8903 125.659C60.9397 121.702 67.9998 116.433 76.0572 111.166C84.1348 105.886 93.0853 100.694 101.926 96.8217C110.86 92.9086 119.162 90.5767 126.081 90.5019L125.919 75.5028C116.11 75.6088 105.673 78.8048 95.9076 83.0819C86.0489 87.4 76.3405 93.0604 67.8501 98.6102C59.3396 104.173 51.9229 109.711 46.6375 113.853C43.9908 115.928 41.8688 117.66 40.4002 118.88C39.6657 119.491 39.094 119.974 38.7013 120.308C38.5049 120.476 38.3531 120.606 38.2481 120.696C38.1956 120.742 38.1547 120.777 38.1258 120.802C38.1113 120.814 38.0998 120.824 38.0913 120.832C38.0871 120.835 38.0836 120.838 38.0809 120.841C38.0795 120.842 38.078 120.843 38.0773 120.844C38.076 120.845 38.0749 120.846 43 126.502ZM126.081 90.5019C133.111 90.4259 141.318 92.6556 150.032 96.5041C158.667 100.318 167.311 105.501 175.074 110.806C182.816 116.097 189.545 121.414 194.343 125.414C196.738 127.41 198.64 129.07 199.936 130.222C200.583 130.798 201.078 131.246 201.406 131.546C201.57 131.696 201.692 131.809 201.771 131.881C201.81 131.918 201.838 131.944 201.856 131.96C201.864 131.968 201.87 131.974 201.873 131.976C201.875 131.978 201.876 131.979 201.876 131.979C201.876 131.979 201.875 131.978 201.875 131.978C201.875 131.978 201.874 131.977 207 126.502C212.126 121.028 212.125 121.026 212.124 121.025C212.123 121.025 212.121 121.023 212.12 121.022C212.117 121.019 212.114 121.016 212.11 121.012C212.101 121.004 212.09 120.994 212.076 120.981C212.048 120.955 212.009 120.918 211.958 120.872C211.858 120.778 211.712 120.645 211.525 120.473C211.15 120.131 210.605 119.637 209.905 119.014C208.504 117.769 206.48 116.004 203.948 113.893C198.894 109.679 191.776 104.052 183.537 98.4216C175.318 92.8053 165.846 87.0909 156.092 82.7828C146.417 78.5097 135.963 75.3942 125.919 75.5028L126.081 90.5019ZM207 126.502C202.223 120.72 202.224 120.72 202.224 120.719C202.224 120.719 202.225 120.719 202.225 120.719C202.224 120.719 202.223 120.72 202.222 120.721C202.219 120.724 202.212 120.729 202.203 120.737C202.185 120.751 202.156 120.776 202.115 120.809C202.034 120.875 201.908 120.978 201.738 121.115C201.4 121.388 200.891 121.796 200.226 122.32C198.895 123.368 196.943 124.877 194.493 126.692C189.587 130.328 182.723 135.163 174.883 139.977C167.023 144.802 158.31 149.526 149.692 153.007C140.99 156.522 132.874 158.567 126.071 158.503L125.929 173.502C135.535 173.592 145.748 170.777 155.31 166.915C164.957 163.018 174.443 157.848 182.731 152.76C191.038 147.659 198.271 142.562 203.424 138.743C206.004 136.831 208.073 135.233 209.506 134.105C210.222 133.541 210.78 133.094 211.163 132.784C211.355 132.629 211.503 132.508 211.606 132.424C211.658 132.382 211.698 132.349 211.727 132.326C211.741 132.314 211.752 132.305 211.761 132.298C211.765 132.294 211.768 132.291 211.771 132.289C211.772 132.288 211.774 132.287 211.775 132.286C211.776 132.285 211.777 132.284 207 126.502ZM126.071 158.503C119.393 158.44 111.194 156.31 102.277 152.74C93.4588 149.21 84.4395 144.479 76.2632 139.673C68.1058 134.879 60.9081 130.082 55.7465 126.481C53.1693 124.683 51.1089 123.189 49.7006 122.151C48.9967 121.632 48.4563 121.227 48.0964 120.955C47.9165 120.82 47.7817 120.717 47.6943 120.651C47.6505 120.617 47.6186 120.593 47.5988 120.578C47.5889 120.57 47.5821 120.565 47.5783 120.562C47.5763 120.56 47.5752 120.559 47.5748 120.559C47.5746 120.559 47.5749 120.559 47.5748 120.559C47.5753 120.56 47.576 120.56 43 126.502C38.424 132.445 38.4251 132.445 38.4263 132.446C38.427 132.447 38.4285 132.448 38.4298 132.449C38.4326 132.451 38.4361 132.454 38.4403 132.457C38.4489 132.464 38.4605 132.473 38.4752 132.484C38.5046 132.506 38.5462 132.538 38.5997 132.579C38.7068 132.661 38.8618 132.778 39.0626 132.93C39.464 133.233 40.0485 133.67 40.7991 134.224C42.2998 135.33 44.4669 136.901 47.1632 138.783C52.5486 142.54 60.0824 147.562 68.6627 152.605C77.224 157.637 86.9485 162.761 96.7022 166.666C106.357 170.531 116.558 173.414 125.929 173.502L126.071 158.503Z" fill="#29C6BC"/>
<circle cx="125" cy="125" r="21" fill="#29C6BC"/>
</svg>
